<?xml version="1.0" encoding="utf-8"?>
<!-- Generator: Adobe Illustrator 18.1.1, SVG Export Plug-In . SVG Version: 6.00 Build 0)  -->
<!DOCTYPE svg PUBLIC "-//W3C//DTD SVG 1.1//EN" "http://www.w3.org/Graphics/SVG/1.1/DTD/svg11.dtd">
<svg version="1.1" id="Layer_1" xmlns="http://www.w3.org/2000/svg" xmlns:xlink="http://www.w3.org/1999/xlink" x="0px" y="0px"
	 viewBox="0 0 112.8 200" enable-background="new 0 0 112.8 200" xml:space="preserve">
<g>
	<g>
		<path fill="#081211" d="M110.5,141.9V54.1C110.5,24.2,86.3,0,56.4,0C26.5,0,2.3,24.2,2.3,54.1v87.8H110.5z"/>
		<g>
			<path fill="none" d="M110.5,58.3v16.5v8.4v16.5v8.4v16.5v8.4v8.8h0V54.1c0-0.3,0-0.6,0-0.9V58.3z"/>
			<g>
				<polygon fill="#424143" points="14.7,99.7 14.7,108.2 14.7,112.2 14.7,112.2 23.1,112.2 23.1,112.2 23.1,108.2 23.1,99.7 
					23.1,95.7 14.7,95.7 				"/>
				<polygon fill="#424143" points="14.7,74.8 14.7,83.3 14.7,87.3 23.1,87.3 23.1,83.3 23.1,74.8 23.1,70.8 14.7,70.8 				"/>
				<polygon fill="#424143" points="14.7,124.7 14.7,133.1 14.7,137.2 23.1,137.2 23.1,133.1 23.1,124.7 23.1,120.7 14.7,120.7 				
					"/>
				<polygon fill="#424143" points="14.7,24.9 14.7,25 14.7,33.3 14.7,33.4 14.7,37.4 23.1,37.4 23.1,33.4 23.1,33.3 23.1,25 
					23.1,24.9 23.1,20.9 14.7,20.9 				"/>
				<polygon fill="#424143" points="14.7,49.9 14.7,58.3 14.7,62.3 14.7,62.3 23.1,62.3 23.1,62.3 23.1,58.3 23.1,49.9 23.1,45.8 
					14.7,45.8 				"/>
				<path fill="#424143" d="M21.8,12.5h1.3l0,0v-1C22.7,11.8,22.2,12.1,21.8,12.5L21.8,12.5z"/>
				<polygon fill="#424143" points="2.3,62.3 2.3,70.8 2.3,74.8 10.6,74.8 10.6,70.8 10.6,62.3 10.6,58.3 2.3,58.3 				"/>
				<polygon fill="#424143" points="2.3,112.2 2.3,120.7 2.3,124.7 10.6,124.7 10.6,120.7 10.6,112.2 10.6,108.2 2.3,108.2 				"/>
				<polygon fill="#424143" points="2.3,87.3 2.3,95.7 2.3,99.7 10.6,99.7 10.6,95.7 10.6,87.3 10.6,83.3 2.3,83.3 				"/>
				<polygon fill="#424143" points="2.3,137.2 2.3,141.9 10.6,141.9 10.6,137.2 10.6,133.1 2.3,133.1 				"/>
				<path fill="#424143" d="M4.9,37.4c-0.9,2.7-1.6,5.5-2,8.4c-0.2,1.3-0.3,2.7-0.5,4.1h8.2v-4.1v-8.4v-4H6.4
					C5.9,34.7,5.4,36,4.9,37.4z"/>
				<polygon fill="#424143" points="27.2,137.2 27.2,141.9 35.6,141.9 35.6,137.2 35.6,133.1 27.2,133.1 				"/>
				<polygon fill="#424143" points="27.2,87.3 27.2,95.7 27.2,99.7 35.6,99.7 35.6,95.7 35.6,87.3 35.6,83.3 27.2,83.3 				"/>
				<path fill="#424143" d="M27.2,8.6v3.9v8.4v4V25h8.4v-0.1v-4v-8.4V8.4h-8.2C27.3,8.5,27.2,8.5,27.2,8.6z"/>
				<polygon fill="#424143" points="27.2,112.2 27.2,120.7 27.2,124.7 35.6,124.7 35.6,120.7 35.6,112.2 35.6,108.2 27.2,108.2 				
					"/>
				<polygon fill="#424143" points="27.2,37.4 27.2,45.8 27.2,49.9 35.6,49.9 35.6,45.8 35.6,37.4 35.6,33.4 27.2,33.4 				"/>
				<polygon fill="#424143" points="27.2,62.3 27.2,70.8 27.2,74.8 35.6,74.8 35.6,70.8 35.6,62.3 35.6,58.3 27.2,58.3 				"/>
				<polygon fill="#424143" points="39.6,124.7 39.6,133.1 39.6,137.2 48.1,137.2 48.1,133.1 48.1,124.7 48.1,120.7 39.6,120.7 				
					"/>
				<polygon fill="#424143" points="39.6,24.9 39.6,25 39.6,33.3 39.6,33.4 39.6,37.4 48.1,37.4 48.1,33.4 48.1,33.3 48.1,25 
					48.1,24.9 48.1,20.9 39.6,20.9 				"/>
				<polygon fill="#424143" points="39.6,49.9 39.6,58.3 39.6,62.3 39.6,62.3 48.1,62.3 48.1,62.3 48.1,58.3 48.1,49.9 48.1,45.8 
					39.6,45.8 				"/>
				<polygon fill="#424143" points="39.6,99.7 39.6,108.2 39.6,112.2 39.6,112.2 48.1,112.2 48.1,112.2 48.1,108.2 48.1,99.7 
					48.1,95.7 39.6,95.7 				"/>
				<polygon fill="#424143" points="39.6,74.8 39.6,83.3 39.6,87.3 48.1,87.3 48.1,83.3 48.1,74.8 48.1,70.8 39.6,70.8 				"/>
				<path fill="#424143" d="M39.6,8.4v4.1l0,0h8.4l0,0V8.4V0.6c-2.9,0.4-5.7,1.1-8.4,2V8.4z"/>
				<polygon fill="#424143" points="52.1,137.2 52.1,141.9 60.5,141.9 60.5,137.2 60.5,133.1 52.1,133.1 				"/>
				<polygon fill="#424143" points="52.1,37.4 52.1,45.8 52.1,49.9 60.5,49.9 60.5,45.8 60.5,37.4 60.5,33.4 52.1,33.4 				"/>
				<polygon fill="#424143" points="52.1,62.3 52.1,70.8 52.1,74.8 60.5,74.8 60.5,70.8 60.5,62.3 60.5,58.3 52.1,58.3 				"/>
				<polygon fill="#424143" points="52.1,112.2 52.1,120.7 52.1,124.7 60.5,124.7 60.5,120.7 60.5,112.2 60.5,108.2 52.1,108.2 				
					"/>
				<polygon fill="#424143" points="52.1,12.5 52.1,20.9 52.1,24.9 52.1,25 60.5,25 60.5,24.9 60.5,20.9 60.5,12.5 60.5,8.4 
					52.1,8.4 				"/>
				<polygon fill="#424143" points="52.1,87.3 52.1,95.7 52.1,99.7 60.5,99.7 60.5,95.7 60.5,87.3 60.5,83.3 52.1,83.3 				"/>
				<polygon fill="#424143" points="64.6,99.7 64.6,108.2 64.6,112.2 64.6,112.2 73,112.2 73,112.2 73,108.2 73,99.7 73,95.7 
					64.6,95.7 				"/>
				<polygon fill="#424143" points="64.6,74.8 64.6,83.3 64.6,87.3 73,87.3 73,83.3 73,74.8 73,70.8 64.6,70.8 				"/>
				<polygon fill="#424143" points="64.6,24.9 64.6,25 64.6,33.3 64.6,33.4 64.6,37.4 73,37.4 73,33.4 73,33.3 73,25 73,24.9 
					73,20.9 64.6,20.9 				"/>
				<polygon fill="#424143" points="64.6,124.7 64.6,133.1 64.6,137.2 73,137.2 73,133.1 73,124.7 73,120.7 64.6,120.7 				"/>
				<polygon fill="#424143" points="64.6,49.9 64.6,58.3 64.6,62.3 64.6,62.3 73,62.3 73,62.3 73,58.3 73,49.9 73,45.8 64.6,45.8 
									"/>
				<path fill="#424143" d="M64.6,8.4v4.1l0,0H73l0,0V8.4V2.6c-2.7-0.9-5.5-1.6-8.4-2V8.4z"/>
				<polygon fill="#424143" points="77.1,137.2 77.1,141.9 85.5,141.9 85.5,137.2 85.5,133.1 77.1,133.1 				"/>
				<polygon fill="#424143" points="77.1,87.3 77.1,95.7 77.1,99.7 85.5,99.7 85.5,95.7 85.5,87.3 85.5,83.3 77.1,83.3 				"/>
				<polygon fill="#424143" points="77.1,112.2 77.1,120.7 77.1,124.7 85.5,124.7 85.5,120.7 85.5,112.2 85.5,108.2 77.1,108.2 				
					"/>
				<polygon fill="#424143" points="77.1,62.3 77.1,70.8 77.1,74.8 85.5,74.8 85.5,70.8 85.5,62.3 85.5,58.3 77.1,58.3 				"/>
				<path fill="#424143" d="M77.1,8.4v4.1v8.4v4V25h8.4v-0.1v-4v-8.4v-4c0,0-0.1-0.1-0.1-0.1H77.1z"/>
				<polygon fill="#424143" points="77.1,37.4 77.1,45.8 77.1,49.9 85.5,49.9 85.5,45.8 85.5,37.4 85.5,33.4 77.1,33.4 				"/>
				<polygon fill="#424143" points="89.6,74.8 89.6,83.3 89.6,87.3 98,87.3 98,83.3 98,74.8 98,70.8 89.6,70.8 				"/>
				<polygon fill="#424143" points="89.6,24.9 89.6,25 89.6,33.3 89.6,33.4 89.6,37.4 98,37.4 98,33.4 98,33.3 98,25 98,24.9 
					98,20.9 89.6,20.9 				"/>
				<polygon fill="#424143" points="89.6,124.7 89.6,133.1 89.6,137.2 98,137.2 98,133.1 98,124.7 98,120.7 89.6,120.7 				"/>
				<polygon fill="#424143" points="89.6,99.7 89.6,108.2 89.6,112.2 89.6,112.2 98,112.2 98,112.2 98,108.2 98,99.7 98,95.7 
					89.6,95.7 				"/>
				<polygon fill="#424143" points="89.6,49.9 89.6,58.3 89.6,62.3 89.6,62.3 98,62.3 98,62.3 98,58.3 98,49.9 98,45.8 89.6,45.8 
									"/>
				<path fill="#424143" d="M91,12.5c-0.5-0.4-0.9-0.7-1.4-1.1v1.1l0,0H91L91,12.5z"/>
				<polygon fill="#424143" points="110.4,58.3 102.1,58.3 102.1,62.3 102.1,70.8 102.1,74.8 110.4,74.8 110.5,74.8 110.5,58.3 				
					"/>
				<path fill="#424143" d="M109.9,45.8c-0.4-2.9-1.1-5.7-2-8.4c-0.4-1.3-0.9-2.7-1.5-4h-4.3v4v8.4v4.1h8.3
					C110.2,48.5,110.1,47.1,109.9,45.8z"/>
				<polygon fill="#424143" points="102.1,83.3 102.1,87.3 102.1,95.7 102.1,99.7 110.4,99.7 110.5,99.7 110.5,83.3 110.4,83.3 				
					"/>
				<polygon fill="#424143" points="102.1,108.2 102.1,112.2 102.1,120.7 102.1,124.7 110.4,124.7 110.5,124.7 110.5,108.2 
					110.4,108.2 				"/>
				<polygon fill="#424143" points="102.1,133.1 102.1,137.2 102.1,141.9 110.4,141.9 110.5,141.9 110.5,133.1 110.4,133.1 				"/>
			</g>
			<g>
				<polygon fill="#6E6F72" points="10.6,112.2 10.6,120.7 12.6,120.7 14.7,120.7 23.1,120.7 25.7,120.7 27.2,120.7 27.2,112.2 
					23.1,112.2 23.1,112.2 14.7,112.2 14.7,112.2 				"/>
				<polygon fill="#6E6F72" points="60.5,62.3 60.5,70.8 62.3,70.8 64.6,70.8 73,70.8 75.4,70.8 77.1,70.8 77.1,62.3 73,62.3 
					73,62.3 64.6,62.3 64.6,62.3 				"/>
				<polygon fill="#6E6F72" points="48.1,62.3 39.6,62.3 39.6,62.3 35.6,62.3 35.6,70.8 37.3,70.8 39.6,70.8 48.1,70.8 50.4,70.8 
					52.1,70.8 52.1,62.3 48.1,62.3 				"/>
				<polygon fill="#6E6F72" points="10.6,62.3 10.6,70.8 12.6,70.8 14.7,70.8 23.1,70.8 25.7,70.8 27.2,70.8 27.2,62.3 23.1,62.3 
					23.1,62.3 14.7,62.3 14.7,62.3 				"/>
				<polygon fill="#6E6F72" points="23.1,24.9 23.1,25 23.1,33.3 23.1,33.4 26.6,33.4 27.2,33.4 35.6,33.4 36.1,33.4 39.6,33.4 
					39.6,33.3 39.6,25 39.6,24.9 35.6,24.9 35.6,25 27.2,25 27.2,24.9 				"/>
				<path fill="#6E6F72" d="M98,25v8.3v0.1h1.9h2.1h4.3c0,0,0-0.1,0-0.1c-1.2-2.9-2.6-5.6-4.3-8.2c0,0-0.1-0.1-0.1-0.1
					c0,0,0-0.1-0.1-0.1L98,25L98,25z"/>
				<polygon fill="#6E6F72" points="77.1,24.9 73,24.9 73,25 73,33.3 73,33.4 76.5,33.4 77.1,33.4 85.5,33.4 86.1,33.4 89.6,33.4 
					89.6,33.3 89.6,25 89.6,24.9 85.5,24.9 85.5,25 77.1,25 				"/>
				<polygon fill="#6E6F72" points="48.1,24.9 48.1,25 48.1,33.3 48.1,33.4 51.5,33.4 52.1,33.4 60.5,33.4 61.1,33.4 64.6,33.4 
					64.6,33.3 64.6,25 64.6,24.9 60.5,24.9 60.5,25 52.1,25 52.1,24.9 				"/>
				<polygon fill="#6E6F72" points="64.6,12.5 60.5,12.5 60.5,20.9 61.7,20.9 64.6,20.9 73,20.9 74.8,20.9 77.1,20.9 77.1,12.5 
					73,12.5 73,12.5 64.6,12.5 				"/>
				<polygon fill="#6E6F72" points="39.6,12.5 35.6,12.5 35.6,20.9 36.8,20.9 39.6,20.9 48.1,20.9 49.9,20.9 52.1,20.9 52.1,12.5 
					48.1,12.5 48.1,12.5 39.6,12.5 				"/>
				<polygon fill="#6E6F72" points="23.1,137.2 14.7,137.2 12.6,137.2 10.6,137.2 10.6,141.9 12.6,141.9 14.7,141.9 23.1,141.9 
					25.7,141.9 27.2,141.9 27.2,137.2 25.7,137.2 				"/>
				<polygon fill="#6E6F72" points="48.1,137.2 39.6,137.2 37.3,137.2 35.6,137.2 35.6,141.9 37.3,141.9 39.6,141.9 48.1,141.9 
					50.4,141.9 52.1,141.9 52.1,137.2 50.4,137.2 				"/>
				<polygon fill="#6E6F72" points="73,137.2 64.6,137.2 62.3,137.2 60.5,137.2 60.5,141.9 62.3,141.9 64.6,141.9 73,141.9 
					75.4,141.9 77.1,141.9 77.1,137.2 75.4,137.2 				"/>
				<polygon fill="#6E6F72" points="98,137.2 89.6,137.2 86.7,137.2 85.5,137.2 85.5,141.9 86.7,141.9 89.6,141.9 98,141.9 
					99.8,141.9 102.1,141.9 102.1,137.2 99.8,137.2 				"/>
				<polygon fill="#6E6F72" points="11.7,133.1 11.7,133.1 14.7,133.1 14.7,124.7 11.7,124.7 10.6,124.7 2.3,124.7 2.3,133.1 
					2.3,133.1 10.6,133.1 				"/>
				<polygon fill="#6E6F72" points="36.1,133.1 36.1,133.1 39.6,133.1 39.6,124.7 36.1,124.7 35.6,124.7 27.2,124.7 26.6,124.7 
					23.1,124.7 23.1,133.1 26.6,133.1 26.6,133.1 27.2,133.1 35.6,133.1 				"/>
				<polygon fill="#6E6F72" points="61.1,133.1 61.1,133.1 64.6,133.1 64.6,124.7 61.1,124.7 60.5,124.7 52.1,124.7 51.5,124.7 
					48.1,124.7 48.1,133.1 51.5,133.1 51.5,133.1 52.1,133.1 60.5,133.1 				"/>
				<polygon fill="#6E6F72" points="86.1,133.1 86.1,133.1 89.6,133.1 89.6,124.7 86.1,124.7 85.5,124.7 77.1,124.7 76.5,124.7 
					73,124.7 73,133.1 76.5,133.1 76.5,133.1 77.1,133.1 85.5,133.1 				"/>
				<polygon fill="#6E6F72" points="102.1,124.7 99.9,124.7 98,124.7 98,133.1 99.9,133.1 102.1,133.1 110.4,133.1 110.5,133.1 
					110.5,124.7 110.4,124.7 				"/>
				<polygon fill="#6E6F72" points="39.6,120.7 48.1,120.7 50.4,120.7 52.1,120.7 52.1,112.2 48.1,112.2 48.1,112.2 39.6,112.2 
					39.6,112.2 35.6,112.2 35.6,120.7 37.3,120.7 				"/>
				<polygon fill="#6E6F72" points="64.6,120.7 73,120.7 75.4,120.7 77.1,120.7 77.1,112.2 73,112.2 73,112.2 64.6,112.2 
					64.6,112.2 60.5,112.2 60.5,120.7 62.3,120.7 				"/>
				<polygon fill="#6E6F72" points="89.6,120.7 98,120.7 99.8,120.7 102.1,120.7 102.1,112.2 98,112.2 98,112.2 89.6,112.2 
					89.6,112.2 85.5,112.2 85.5,120.7 86.7,120.7 				"/>
				<polygon fill="#6E6F72" points="12.6,87.3 10.6,87.3 10.6,95.7 12.6,95.7 14.7,95.7 23.1,95.7 25.7,95.7 27.2,95.7 27.2,87.3 
					25.7,87.3 23.1,87.3 14.7,87.3 				"/>
				<polygon fill="#6E6F72" points="39.6,95.7 48.1,95.7 50.4,95.7 52.1,95.7 52.1,87.3 50.4,87.3 48.1,87.3 39.6,87.3 37.3,87.3 
					35.6,87.3 35.6,95.7 37.3,95.7 				"/>
				<polygon fill="#6E6F72" points="64.6,95.7 73,95.7 75.4,95.7 77.1,95.7 77.1,87.3 75.4,87.3 73,87.3 64.6,87.3 62.3,87.3 
					60.5,87.3 60.5,95.7 62.3,95.7 				"/>
				<polygon fill="#6E6F72" points="99.8,95.7 102.1,95.7 102.1,87.3 99.8,87.3 98,87.3 89.6,87.3 86.7,87.3 85.5,87.3 85.5,95.7 
					86.7,95.7 89.6,95.7 98,95.7 				"/>
				<polygon fill="#6E6F72" points="99.8,70.8 102.1,70.8 102.1,62.3 98,62.3 98,62.3 89.6,62.3 89.6,62.3 85.5,62.3 85.5,70.8 
					86.7,70.8 89.6,70.8 98,70.8 				"/>
				<polygon fill="#6E6F72" points="14.7,37.4 12.6,37.4 10.6,37.4 10.6,45.8 12.6,45.8 14.7,45.8 23.1,45.8 25.7,45.8 27.2,45.8 
					27.2,37.4 25.7,37.4 23.1,37.4 				"/>
				<polygon fill="#6E6F72" points="39.6,37.4 37.3,37.4 35.6,37.4 35.6,45.8 37.3,45.8 39.6,45.8 48.1,45.8 50.4,45.8 52.1,45.8 
					52.1,37.4 50.4,37.4 48.1,37.4 				"/>
				<polygon fill="#6E6F72" points="73,37.4 64.6,37.4 62.3,37.4 60.5,37.4 60.5,45.8 62.3,45.8 64.6,45.8 73,45.8 75.4,45.8 
					77.1,45.8 77.1,37.4 75.4,37.4 				"/>
				<polygon fill="#6E6F72" points="99.8,45.8 102.1,45.8 102.1,37.4 99.8,37.4 98,37.4 89.6,37.4 86.7,37.4 85.5,37.4 85.5,45.8 
					86.7,45.8 89.6,45.8 98,45.8 				"/>
				<path fill="#6E6F72" d="M23.1,20.9h2.1h2v-8.4h-4.1l0,0h-1.3c-2.6,2.2-5,4.6-7.2,7.2c-0.3,0.4-0.7,0.8-1,1.3h1H23.1z"/>
				<path fill="#6E6F72" d="M89.6,20.9H98h1.1c-0.4-0.5-0.7-0.9-1.1-1.4c-2.1-2.6-4.5-4.9-7-7h-1.4l0,0h-4.1v8.4h0.7H89.6z"/>
				<polygon fill="#6E6F72" points="11.7,108.2 14.7,108.2 14.7,99.7 11.7,99.7 10.6,99.7 2.3,99.7 2.3,108.2 10.6,108.2 				"/>
				<polygon fill="#6E6F72" points="35.6,108.2 36.1,108.2 39.6,108.2 39.6,99.7 36.1,99.7 35.6,99.7 27.2,99.7 26.6,99.7 
					23.1,99.7 23.1,108.2 26.6,108.2 27.2,108.2 				"/>
				<polygon fill="#6E6F72" points="60.5,108.2 61.1,108.2 64.6,108.2 64.6,99.7 61.1,99.7 60.5,99.7 52.1,99.7 51.5,99.7 
					48.1,99.7 48.1,108.2 51.5,108.2 52.1,108.2 				"/>
				<polygon fill="#6E6F72" points="85.5,108.2 86.1,108.2 89.6,108.2 89.6,99.7 86.1,99.7 85.5,99.7 77.1,99.7 76.5,99.7 73,99.7 
					73,108.2 76.5,108.2 77.1,108.2 				"/>
				<polygon fill="#6E6F72" points="102.1,99.7 99.9,99.7 98,99.7 98,108.2 99.9,108.2 102.1,108.2 110.4,108.2 110.5,108.2 
					110.5,99.7 110.4,99.7 				"/>
				<polygon fill="#6E6F72" points="11.7,83.3 14.7,83.3 14.7,74.8 11.7,74.8 10.6,74.8 2.3,74.8 2.3,83.3 10.6,83.3 				"/>
				<polygon fill="#6E6F72" points="26.6,74.8 23.1,74.8 23.1,83.3 26.6,83.3 27.2,83.3 35.6,83.3 36.1,83.3 39.6,83.3 39.6,74.8 
					36.1,74.8 35.6,74.8 27.2,74.8 				"/>
				<polygon fill="#6E6F72" points="60.5,83.3 61.1,83.3 64.6,83.3 64.6,74.8 61.1,74.8 60.5,74.8 52.1,74.8 51.5,74.8 48.1,74.8 
					48.1,83.3 51.5,83.3 52.1,83.3 				"/>
				<polygon fill="#6E6F72" points="85.5,83.3 86.1,83.3 89.6,83.3 89.6,74.8 86.1,74.8 85.5,74.8 77.1,74.8 76.5,74.8 73,74.8 
					73,83.3 76.5,83.3 77.1,83.3 				"/>
				<polygon fill="#6E6F72" points="102.1,74.8 99.9,74.8 98,74.8 98,83.3 99.9,83.3 102.1,83.3 110.4,83.3 110.5,83.3 110.5,74.8 
					110.4,74.8 				"/>
				<path fill="#6E6F72" d="M11.7,58.3h2.9v-8.4h-2.9h-1.1H2.5c-0.1,1.4-0.2,2.8-0.2,4.3v4.2h8.3H11.7z"/>
				<polygon fill="#6E6F72" points="35.6,49.9 27.2,49.9 26.6,49.9 23.1,49.9 23.1,58.3 26.6,58.3 27.2,58.3 35.6,58.3 36.1,58.3 
					39.6,58.3 39.6,49.9 36.1,49.9 				"/>
				<polygon fill="#6E6F72" points="60.5,49.9 52.1,49.9 51.5,49.9 48.1,49.9 48.1,58.3 51.5,58.3 52.1,58.3 60.5,58.3 61.1,58.3 
					64.6,58.3 64.6,49.9 61.1,49.9 				"/>
				<polygon fill="#6E6F72" points="86.1,58.3 89.6,58.3 89.6,49.9 86.1,49.9 85.5,49.9 77.1,49.9 76.5,49.9 73,49.9 73,58.3 
					76.5,58.3 77.1,58.3 85.5,58.3 				"/>
				<path fill="#6E6F72" d="M110.4,50.4c0-0.2,0-0.4,0-0.6h-8.3h-2.1H98v8.4h1.9h2.1h8.3h0.1v-5.1C110.5,52.3,110.4,51.4,110.4,50.4
					z"/>
				<path fill="#6E6F72" d="M11.7,33.4h2.9v-0.1V25v-0.1h-3.8c0,0,0,0.1-0.1,0.1c-0.1,0.1-0.1,0.2-0.2,0.3c-1.6,2.5-3,5.2-4.2,8
					c0,0,0,0.1,0,0.1h4.2H11.7z"/>
				<path fill="#6E6F72" d="M36.1,8.4h3.5V2.7c-1.2,0.4-2.3,0.8-3.5,1.3C36,4,35.8,4.1,35.6,4.2c-2.9,1.2-5.6,2.6-8.2,4.3h8.2H36.1z
					"/>
				<path fill="#6E6F72" d="M52.1,8.4h8.4h0.5h3.6V0.6c-0.5-0.1-0.9-0.1-1.4-0.2c-0.7-0.1-1.5-0.2-2.2-0.2c-0.2,0-0.3,0-0.5,0
					C59.2,0.1,57.8,0,56.4,0c-1.4,0-2.9,0.1-4.3,0.2c-0.2,0-0.4,0-0.6,0c-0.7,0.1-1.3,0.1-2,0.2c-0.5,0.1-1,0.1-1.5,0.2v7.8h3.4
					H52.1z"/>
				<path fill="#6E6F72" d="M77.1,8.4h8.3c-2.6-1.7-5.4-3.1-8.3-4.3C76.9,4,76.7,4,76.5,3.9C75.4,3.4,74.2,3,73,2.6v5.8h3.5H77.1z"
					/>
			</g>
		</g>
	</g>
	<g>
		<path fill="#F7902B" d="M0,121.6v40C0,182.8,17.2,200,38.4,200h35.8c21.2,0,38.4-17.2,38.4-38.4v-40H0z"/>
		<path fill="#E97126" d="M25.2,128.5c-1.1,0-2,0.9-2,2v36L6.5,183c0.7,1.1,1.5,2.1,2.4,3.2L23.2,172v24.9c1.3,0.5,2.6,1,3.9,1.4
			v-67.9C27.1,129.4,26.2,128.5,25.2,128.5z"/>
		<path fill="#E97126" d="M87.4,128.5c1.1,0,2,0.9,2,2v36l16.7,16.5c-0.7,1.1-1.5,2.1-2.4,3.2L89.4,172v24.9c-1.3,0.5-2.6,1-3.9,1.4
			v-67.9C85.5,129.4,86.4,128.5,87.4,128.5z"/>
		<rect x="2.7" y="127.4" fill="#6E6F72" width="106.9" height="7.5"/>
		<rect x="0.2" y="116.4" fill="#E97126" width="112.6" height="25"/>
		<g>
			<rect x="0" y="121.8" fill="#F7902B" width="39.6" height="1.1"/>
			<rect x="0" y="134.9" fill="#F7902B" width="39.6" height="1.1"/>
			<g>
				<path fill="#F7902B" d="M6,127.5c-0.1-0.1-0.3-0.1-0.6-0.1c-0.3,0-0.5,0.1-0.7,0.3c-0.2,0.2-0.2,0.6-0.2,1.2
					c0,0.6,0.1,1,0.2,1.2c0.2,0.2,0.4,0.4,0.7,0.4c0.5,0,0.9-0.1,1.3-0.2l0.2,0.6c-0.5,0.3-1,0.4-1.7,0.4c-0.6,0-1.1-0.2-1.4-0.5
					c-0.3-0.4-0.4-1-0.4-1.8c0-0.8,0.2-1.4,0.5-1.8c0.4-0.4,0.8-0.6,1.5-0.6c0.5,0,1,0.1,1.5,0.4c0,0,0,0.1,0,0.2c0,0.1,0,0.2,0,0.4
					c0,0.2-0.1,0.3-0.1,0.5H6.1C6,127.9,6,127.7,6,127.5z"/>
				<path fill="#F7902B" d="M9,126.7c0.5,0,0.9,0,1.2,0.1c0.2,0.1,0.4,0.1,0.5,0.2c0.2,0.2,0.3,0.5,0.3,0.9c0,0.3-0.2,0.6-0.5,0.9
					c0.4,0.2,0.6,0.6,0.6,1.2c0,0.4-0.1,0.8-0.4,1c-0.3,0.2-0.7,0.3-1.3,0.4H7.5l-0.1-0.6c0.1-0.1,0.2-0.2,0.4-0.2v-3.1
					c-0.2-0.1-0.3-0.1-0.4-0.2l0.1-0.6H9z M9.1,127.4H8.8v1.2h0.6c0.2,0,0.4-0.1,0.5-0.2c0.1-0.1,0.2-0.3,0.2-0.4
					c0-0.2,0-0.3-0.1-0.4c-0.1-0.1-0.2-0.1-0.3-0.2C9.5,127.4,9.3,127.4,9.1,127.4z M9.4,129.3H8.8v1.3h0.5c0.3,0,0.5,0,0.7-0.1
					c0.2-0.1,0.2-0.3,0.2-0.5s-0.1-0.4-0.2-0.5C9.9,129.3,9.7,129.3,9.4,129.3z"/>
			</g>
			<g>
				<path fill="#F7902B" d="M22.3,127.5c-0.1-0.1-0.3-0.1-0.6-0.1c-0.3,0-0.5,0.1-0.7,0.3c-0.2,0.2-0.2,0.6-0.2,1.2
					c0,0.6,0.1,1,0.2,1.2c0.2,0.2,0.4,0.4,0.7,0.4c0.5,0,0.9-0.1,1.3-0.2l0.2,0.6c-0.5,0.3-1,0.4-1.7,0.4c-0.6,0-1.1-0.2-1.4-0.5
					c-0.3-0.4-0.4-1-0.4-1.8c0-0.8,0.2-1.4,0.5-1.8c0.4-0.4,0.8-0.6,1.5-0.6c0.5,0,1,0.1,1.5,0.4c0,0,0,0.1,0,0.2c0,0.1,0,0.2,0,0.4
					c0,0.2-0.1,0.3-0.1,0.5h-0.6C22.4,127.9,22.4,127.7,22.3,127.5z"/>
				<path fill="#F7902B" d="M25.4,126.7c0.5,0,0.9,0,1.2,0.1c0.2,0.1,0.4,0.1,0.5,0.2c0.2,0.2,0.3,0.5,0.3,0.9
					c0,0.3-0.2,0.6-0.5,0.9c0.4,0.2,0.6,0.6,0.6,1.2c0,0.4-0.1,0.8-0.4,1c-0.3,0.2-0.7,0.3-1.3,0.4h-1.9l-0.1-0.6
					c0.1-0.1,0.2-0.2,0.4-0.2v-3.1c-0.2-0.1-0.3-0.1-0.4-0.2l0.1-0.6H25.4z M25.5,127.4h-0.4v1.2h0.6c0.2,0,0.4-0.1,0.5-0.2
					c0.1-0.1,0.2-0.3,0.2-0.4c0-0.2,0-0.3-0.1-0.4c-0.1-0.1-0.2-0.1-0.3-0.2C25.9,127.4,25.7,127.4,25.5,127.4z M25.7,129.3h-0.6
					v1.3h0.5c0.3,0,0.5,0,0.7-0.1c0.2-0.1,0.2-0.3,0.2-0.5s-0.1-0.4-0.2-0.5C26.2,129.3,26,129.3,25.7,129.3z"/>
			</g>
		</g>
		<g>
			<rect x="73.1" y="121.8" fill="#F7902B" width="39.6" height="1.1"/>
			<rect x="73.1" y="134.9" fill="#F7902B" width="39.6" height="1.1"/>
			<g>
				<path fill="#F7902B" d="M104.1,127.5c-0.1-0.1-0.3-0.1-0.6-0.1c-0.3,0-0.5,0.1-0.7,0.3c-0.2,0.2-0.2,0.6-0.2,1.2
					c0,0.6,0.1,1,0.2,1.2c0.2,0.2,0.4,0.4,0.7,0.4c0.5,0,0.9-0.1,1.3-0.2l0.2,0.6c-0.5,0.3-1,0.4-1.7,0.4c-0.6,0-1.1-0.2-1.4-0.5
					c-0.3-0.4-0.4-1-0.4-1.8c0-0.8,0.2-1.4,0.5-1.8c0.4-0.4,0.8-0.6,1.5-0.6c0.5,0,1,0.1,1.5,0.4c0,0,0,0.1,0,0.2c0,0.1,0,0.2,0,0.4
					c0,0.2-0.1,0.3-0.1,0.5h-0.6C104.1,127.9,104.1,127.7,104.1,127.5z"/>
				<path fill="#F7902B" d="M107.1,126.7c0.5,0,0.9,0,1.2,0.1c0.2,0.1,0.4,0.1,0.5,0.2c0.2,0.2,0.3,0.5,0.3,0.9
					c0,0.3-0.2,0.6-0.5,0.9c0.4,0.2,0.6,0.6,0.6,1.2c0,0.4-0.1,0.8-0.4,1c-0.3,0.2-0.7,0.3-1.3,0.4h-1.9l-0.1-0.6
					c0.1-0.1,0.2-0.2,0.4-0.2v-3.1c-0.2-0.1-0.3-0.1-0.4-0.2l0.1-0.6H107.1z M107.2,127.4h-0.3v1.2h0.6c0.2,0,0.4-0.1,0.5-0.2
					c0.1-0.1,0.2-0.3,0.2-0.4c0-0.2,0-0.3-0.1-0.4c-0.1-0.1-0.2-0.1-0.3-0.2C107.6,127.4,107.4,127.4,107.2,127.4z M107.5,129.3
					h-0.6v1.3h0.5c0.3,0,0.5,0,0.7-0.1c0.2-0.1,0.2-0.3,0.2-0.5s-0.1-0.4-0.2-0.5C108,129.3,107.8,129.3,107.5,129.3z"/>
			</g>
			<g>
				<path fill="#F7902B" d="M87.7,127.5c-0.1-0.1-0.3-0.1-0.6-0.1c-0.3,0-0.5,0.1-0.7,0.3c-0.2,0.2-0.2,0.6-0.2,1.2
					c0,0.6,0.1,1,0.2,1.2c0.2,0.2,0.4,0.4,0.7,0.4c0.5,0,0.9-0.1,1.3-0.2l0.2,0.6c-0.5,0.3-1,0.4-1.7,0.4c-0.6,0-1.1-0.2-1.4-0.5
					c-0.3-0.4-0.4-1-0.4-1.8c0-0.8,0.2-1.4,0.5-1.8c0.4-0.4,0.8-0.6,1.5-0.6c0.5,0,1,0.1,1.5,0.4c0,0,0,0.1,0,0.2c0,0.1,0,0.2,0,0.4
					c0,0.2-0.1,0.3-0.1,0.5h-0.6C87.8,127.9,87.8,127.7,87.7,127.5z"/>
				<path fill="#F7902B" d="M90.8,126.7c0.5,0,0.9,0,1.2,0.1c0.2,0.1,0.4,0.1,0.5,0.2c0.2,0.2,0.3,0.5,0.3,0.9
					c0,0.3-0.2,0.6-0.5,0.9c0.4,0.2,0.6,0.6,0.6,1.2c0,0.4-0.1,0.8-0.4,1c-0.3,0.2-0.7,0.3-1.3,0.4h-1.9l-0.1-0.6
					c0.1-0.1,0.2-0.2,0.4-0.2v-3.1c-0.2-0.1-0.3-0.1-0.4-0.2l0.1-0.6H90.8z M90.9,127.4h-0.3v1.2h0.6c0.2,0,0.4-0.1,0.5-0.2
					c0.1-0.1,0.2-0.3,0.2-0.4c0-0.2,0-0.3-0.1-0.4c-0.1-0.1-0.2-0.1-0.3-0.2C91.3,127.4,91.1,127.4,90.9,127.4z M91.1,129.3h-0.6
					v1.3H91c0.3,0,0.5,0,0.7-0.1c0.2-0.1,0.2-0.3,0.2-0.5s-0.1-0.4-0.2-0.5C91.6,129.3,91.4,129.3,91.1,129.3z"/>
			</g>
		</g>
		<g>
			<path fill="#FFFFFF" d="M51.8,123.9c-0.4-0.2-1.1-0.3-2-0.3c-0.9,0-1.6,0.4-2.1,1.1c-0.5,0.8-0.8,2.1-0.8,4c0,1.9,0.3,3.2,0.8,4
				c0.5,0.8,1.3,1.2,2.3,1.2c1.6,0,3-0.2,4.2-0.7l0.8,1.9c-1.5,0.9-3.4,1.4-5.4,1.4c-2.1,0-3.6-0.6-4.5-1.8
				c-0.9-1.2-1.4-3.1-1.4-5.8c0-2.7,0.6-4.7,1.7-5.9c1.1-1.3,2.7-1.9,4.8-1.9c1.7,0,3.2,0.5,4.7,1.4c0,0.1,0,0.3,0,0.5
				c0,0.2-0.1,0.7-0.2,1.3c-0.1,0.6-0.2,1.1-0.4,1.5h-2.1C52,125.4,51.9,124.8,51.8,123.9z"/>
			<path fill="#FFFFFF" d="M62.3,121.4c1.7,0,3,0.1,3.7,0.3c0.8,0.2,1.3,0.5,1.7,0.8c0.7,0.6,1.1,1.6,1.1,3c0,1-0.5,1.9-1.6,2.8
				c1.4,0.7,2,2,2,3.8c0,1.5-0.5,2.5-1.4,3.2c-1,0.7-2.4,1.1-4.3,1.2h-6.2l-0.2-1.8c0.2-0.2,0.6-0.5,1.2-0.7v-10
				c-0.6-0.2-1-0.5-1.2-0.7l0.2-1.8H62.3z M62.6,123.7h-1.1v3.8h1.8c0.7,0,1.3-0.2,1.7-0.6c0.4-0.4,0.6-0.8,0.6-1.4
				c0-0.5-0.1-1-0.4-1.2c-0.3-0.3-0.6-0.4-1-0.5C63.9,123.8,63.3,123.7,62.6,123.7z M63.5,129.9h-1.9v4.2H63c1,0,1.7-0.1,2.3-0.4
				c0.5-0.3,0.8-0.8,0.8-1.6c0-0.8-0.2-1.3-0.6-1.6C65,130.1,64.4,129.9,63.5,129.9z"/>
		</g>
	</g>
</g>
</svg>
